<mxfile host="app.diagrams.net" modified="2020-08-19T06:48:18.898Z" agent="5.0 (Windows NT 10.0; Win64; x64) AppleWebKit/537.36 (KHTML, like Gecko) Chrome/84.0.4147.125 Safari/537.36" etag="ffO9qdpT7L1kjnTDI17i" version="13.6.2" type="github">
  <diagram id="Yv249dYnq5lpIBFWmsio" name="第 1 页">
    <mxGraphModel dx="1038" dy="499" grid="1" gridSize="10" guides="1" tooltips="1" connect="1" arrows="1" fold="1" page="1" pageScale="1" pageWidth="827" pageHeight="1169" math="0" shadow="0">
      <root>
        <mxCell id="0" />
        <mxCell id="1" parent="0" />
        <mxCell id="3RI2fMIcHj3xBzKxfpXM-1" value="" style="verticalLabelPosition=bottom;aspect=fixed;html=1;verticalAlign=top;strokeColor=none;align=center;outlineConnect=0;shape=mxgraph.citrix.cloud;" vertex="1" parent="1">
          <mxGeometry x="360" y="230" width="95" height="62" as="geometry" />
        </mxCell>
        <mxCell id="3RI2fMIcHj3xBzKxfpXM-2" value="CC" style="text;html=1;strokeColor=none;fillColor=none;align=center;verticalAlign=middle;whiteSpace=wrap;rounded=0;fontSize=34;" vertex="1" parent="1">
          <mxGeometry x="390" y="250" width="40" height="20" as="geometry" />
        </mxCell>
        <mxCell id="3RI2fMIcHj3xBzKxfpXM-3" value="" style="verticalLabelPosition=bottom;aspect=fixed;html=1;verticalAlign=top;strokeColor=none;align=center;outlineConnect=0;shape=mxgraph.citrix.web_server;fontSize=34;" vertex="1" parent="1">
          <mxGeometry x="369.25" y="50" width="76.5" height="90" as="geometry" />
        </mxCell>
        <mxCell id="3RI2fMIcHj3xBzKxfpXM-4" value="" style="verticalLabelPosition=bottom;aspect=fixed;html=1;verticalAlign=top;strokeColor=none;align=center;outlineConnect=0;shape=mxgraph.citrix.web_server;fontSize=34;" vertex="1" parent="1">
          <mxGeometry x="210" y="301" width="76.5" height="90" as="geometry" />
        </mxCell>
        <mxCell id="3RI2fMIcHj3xBzKxfpXM-5" value="" style="verticalLabelPosition=bottom;aspect=fixed;html=1;verticalAlign=top;strokeColor=none;align=center;outlineConnect=0;shape=mxgraph.citrix.web_server;fontSize=34;" vertex="1" parent="1">
          <mxGeometry x="520" y="300" width="76.5" height="90" as="geometry" />
        </mxCell>
        <mxCell id="3RI2fMIcHj3xBzKxfpXM-7" value="" style="html=1;shadow=0;dashed=0;align=center;verticalAlign=middle;shape=mxgraph.arrows2.twoWayArrow;dy=0.65;dx=22;fontSize=34;rotation=-30;" vertex="1" parent="1">
          <mxGeometry x="270.71" y="282.67" width="89.33" height="30" as="geometry" />
        </mxCell>
        <mxCell id="3RI2fMIcHj3xBzKxfpXM-9" value="" style="html=1;shadow=0;dashed=0;align=center;verticalAlign=middle;shape=mxgraph.arrows2.twoWayArrow;dy=0.65;dx=22;fontSize=34;rotation=-50;direction=south;" vertex="1" parent="1">
          <mxGeometry x="470" y="270" width="30" height="80" as="geometry" />
        </mxCell>
        <mxCell id="3RI2fMIcHj3xBzKxfpXM-10" value="" style="html=1;shadow=0;dashed=0;align=center;verticalAlign=middle;shape=mxgraph.arrows2.twoWayArrow;dy=0.65;dx=22;fontSize=34;rotation=-91;" vertex="1" parent="1">
          <mxGeometry x="366.5" y="180" width="75" height="20" as="geometry" />
        </mxCell>
        <mxCell id="3RI2fMIcHj3xBzKxfpXM-11" value="" style="endArrow=block;html=1;startArrow=block;startFill=1;endFill=1;strokeColor=#2EAB6D;dashed=1;dashPattern=5 5;fontSize=34;" edge="1" parent="1">
          <mxGeometry width="100" height="100" relative="1" as="geometry">
            <mxPoint x="230" y="290" as="sourcePoint" />
            <mxPoint x="360" y="100" as="targetPoint" />
          </mxGeometry>
        </mxCell>
        <mxCell id="3RI2fMIcHj3xBzKxfpXM-12" value="" style="endArrow=block;html=1;startArrow=block;startFill=1;endFill=1;strokeColor=#2EAB6D;dashed=1;dashPattern=5 5;fontSize=34;" edge="1" parent="1">
          <mxGeometry width="100" height="100" relative="1" as="geometry">
            <mxPoint x="560" y="290" as="sourcePoint" />
            <mxPoint x="450" y="90" as="targetPoint" />
          </mxGeometry>
        </mxCell>
        <mxCell id="3RI2fMIcHj3xBzKxfpXM-13" value="" style="endArrow=block;html=1;startArrow=block;startFill=1;endFill=1;strokeColor=#2EAB6D;dashed=1;dashPattern=5 5;fontSize=34;" edge="1" parent="1" source="3RI2fMIcHj3xBzKxfpXM-4" target="3RI2fMIcHj3xBzKxfpXM-5">
          <mxGeometry width="100" height="100" relative="1" as="geometry">
            <mxPoint x="320" y="480" as="sourcePoint" />
            <mxPoint x="420" y="380" as="targetPoint" />
          </mxGeometry>
        </mxCell>
        <mxCell id="3RI2fMIcHj3xBzKxfpXM-14" value="&lt;font style=&quot;font-size: 14px&quot;&gt;Provider &amp;amp; Consumer&amp;nbsp;&lt;/font&gt;" style="verticalLabelPosition=bottom;aspect=fixed;html=1;verticalAlign=top;strokeColor=none;align=center;outlineConnect=0;shape=mxgraph.citrix.users;fontSize=34;" vertex="1" parent="1">
          <mxGeometry x="520" y="125" width="64.5" height="55" as="geometry" />
        </mxCell>
        <mxCell id="3RI2fMIcHj3xBzKxfpXM-15" value="&lt;font style=&quot;font-size: 14px&quot;&gt;Provider &amp;amp; Consumer&amp;nbsp;&lt;/font&gt;" style="verticalLabelPosition=bottom;aspect=fixed;html=1;verticalAlign=top;strokeColor=none;align=center;outlineConnect=0;shape=mxgraph.citrix.users;fontSize=34;" vertex="1" parent="1">
          <mxGeometry x="366.5" y="360" width="64.5" height="55" as="geometry" />
        </mxCell>
        <mxCell id="3RI2fMIcHj3xBzKxfpXM-16" value="&lt;font style=&quot;font-size: 14px&quot;&gt;Provider &amp;amp; Consumer&amp;nbsp;&lt;/font&gt;" style="verticalLabelPosition=bottom;aspect=fixed;html=1;verticalAlign=top;strokeColor=none;align=center;outlineConnect=0;shape=mxgraph.citrix.users;fontSize=34;" vertex="1" parent="1">
          <mxGeometry x="206.21" y="140" width="64.5" height="55" as="geometry" />
        </mxCell>
      </root>
    </mxGraphModel>
  </diagram>
</mxfile>
